<svg width="101" height="29" viewBox="0 0 101 29" fill="none" xmlns="http://www.w3.org/2000/svg">
<path d="M12.2206 28.284V20.6714C12.2206 18.7961 10.7002 17.2759 8.82491 17.2759C8.73904 17.2759 8.65737 17.2759 8.58089 17.2759C7.41177 17.2759 3.6728 17.2759 3.6728 17.2759C3.6728 17.2759 3.6728 19.6583 3.6728 20.6988V28.284H0V9.86414H3.6728V14.4006C3.6728 14.4006 7.99293 14.4006 9.70589 14.4006C11.7353 14.4006 13.2684 14.9118 14.3052 15.9341C15.3419 16.9199 15.8603 18.2434 15.8603 19.9047V28.284H12.2206Z" fill="#6935FD"/>
<path d="M17.4772 21.4656C17.4772 20.1512 17.8743 18.9463 18.6684 17.851C19.5066 16.7191 20.5655 15.8702 21.8449 15.3043C23.1684 14.7019 24.6243 14.4006 26.2125 14.4006C27.7566 14.4006 29.1905 14.7019 30.514 15.3043C31.8375 15.9067 32.8964 16.7465 33.6905 17.8236C34.4625 18.9372 34.8486 20.1329 34.8486 21.4108C34.8927 23.3641 34.0434 25.0528 32.3008 26.4767C30.5802 27.8824 28.5397 28.567 26.1794 28.5305C24.6574 28.5305 23.2125 28.2201 21.8449 27.5994C20.5655 27.0335 19.5066 26.1846 18.6684 25.0528C17.8743 23.9574 17.4772 22.7617 17.4772 21.4656ZM21.2493 21.4108C21.2493 22.5974 21.7125 23.6197 22.639 24.4777C23.5655 25.3357 24.7566 25.7648 26.2125 25.7648C27.6464 25.7648 28.8265 25.3449 29.753 24.5051C30.6574 23.6654 31.1096 22.6522 31.1096 21.4656C31.1096 20.2424 30.6464 19.2201 29.7199 18.3986C28.8375 17.5589 27.6574 17.139 26.1794 17.139C24.7236 17.139 23.5324 17.5497 22.6059 18.3712C21.7015 19.1745 21.2493 20.1877 21.2493 21.4108Z" fill="#6935FD"/>
<path d="M40.1582 14.6745V22.2871C40.1582 24.1624 41.6789 25.6826 43.5542 25.6826C43.628 25.6826 43.6985 25.6826 43.7648 25.6826C44.9339 25.6826 48.6729 25.6826 48.6729 25.6826C48.6729 25.6826 48.6729 23.3002 48.6729 22.2597V14.6745H52.3457V28.5579C52.3457 28.5579 46.337 28.5579 42.6398 28.5579C41.3383 28.5579 40.2133 28.3205 39.2648 27.8459C38.3163 27.353 37.6104 26.6867 37.1472 25.8469C36.706 25.0619 36.4854 24.1309 36.4854 23.0538V14.6745H40.1582Z" fill="#6935FD"/>
<path d="M60.6134 28.5305C58.1648 28.5122 56.367 27.8733 55.22 26.6136C54.5582 25.9017 54.1942 25.2171 54.1281 24.5599L57.2714 23.8753C57.4479 24.5325 57.8229 25.0619 58.3964 25.4635C58.97 25.8469 59.6979 26.0386 60.5803 26.0386C61.3082 26.0386 61.8707 25.9017 62.2678 25.6278C62.6869 25.3357 62.8965 24.9433 62.8965 24.4504C62.8965 23.7019 62.2457 23.1998 60.9442 22.9443L58.8597 22.5335C57.4479 22.2597 56.367 21.785 55.617 21.1096C54.867 20.4159 54.492 19.5944 54.492 18.6451C54.492 17.4767 55.0545 16.4727 56.1795 15.6329C57.3045 14.7931 58.6832 14.3733 60.3156 14.3733C62.6317 14.3915 64.3192 14.994 65.3781 16.1806C65.9295 16.783 66.2604 17.3946 66.3707 18.0153L63.2935 18.7272C63.1391 18.1613 62.8082 17.7049 62.3009 17.3581C61.8156 17.0112 61.1538 16.8378 60.3156 16.8378C59.6979 16.8378 59.1685 16.9838 58.7273 17.2759C58.2861 17.5315 58.0656 17.8966 58.0656 18.3712C58.0656 19.138 58.617 19.6126 59.72 19.7952L61.97 20.1785C63.4479 20.4524 64.595 20.9544 65.4112 21.6846C66.2273 22.4514 66.6354 23.3185 66.6354 24.286C66.6354 25.4362 66.106 26.4311 65.0472 27.2708C64.0104 28.1106 62.5325 28.5305 60.6134 28.5305Z" fill="#6935FD"/>
<path d="M83.6738 22.3692H71.1664C71.1885 23.355 71.6959 24.2039 72.6885 24.9159C73.6812 25.6096 74.7841 25.9473 75.9973 25.9291C78.2915 25.9291 79.7473 25.1623 80.365 23.6288L83.4422 24.423C83.1554 25.2445 82.626 25.9747 81.854 26.6136C81.104 27.2526 80.2216 27.7364 79.2069 28.065C78.1481 28.3753 77.0892 28.5305 76.0304 28.5305C73.6481 28.567 71.6076 27.8915 69.9091 26.5041C68.2106 25.1167 67.3834 23.4372 67.4275 21.4656C67.4275 20.1877 67.7804 19.0102 68.4863 17.9331C69.2142 16.8195 70.2069 15.9615 71.4642 15.3591C72.7437 14.7201 74.1554 14.4006 75.6995 14.4006C78.2142 14.4006 80.1775 15.0487 81.5892 16.3449C83.0231 17.641 83.74 19.3388 83.74 21.4382C83.74 21.6938 83.7179 22.0041 83.6738 22.3692ZM75.7326 17.0021C74.5635 17.0021 73.5929 17.285 72.8209 17.851C72.0047 18.3986 71.5194 19.138 71.365 20.069H80.001C79.9348 19.1562 79.5047 18.4078 78.7106 17.8236C77.8723 17.2759 76.8797 17.0021 75.7326 17.0021Z" fill="#6935FD"/>
<path d="M97.3015 28.2833V20.6532C97.3015 18.7779 95.7811 17.2576 93.9058 17.2576C93.82 17.2576 93.7383 17.2576 93.6618 17.2576C92.4927 17.2576 89.1745 17.2759 89.1745 17.2759C89.1745 17.2759 89.1745 19.6583 89.1745 20.6988V28.284H85.5017V14.6745C89.1993 14.6745 91.0683 14.6562 94.7868 14.6562C96.8162 14.6562 98.3493 14.8935 99.3861 15.9159C100.423 16.9017 100.941 18.2252 100.941 19.8865V28.2833H97.3015Z" fill="#6935FD"/>
<path d="M50.8473 9.8641L44.4706 3L38.418 9.8641" stroke="#6935FD" stroke-width="3"/>
</svg>
